<svg xmlns="http://www.w3.org/2000/svg" xml:space="preserve" id="kraje" version="1.1" clip-rule="evenodd" fill-rule="evenodd" image-rendering="optimizeQuality" shape-rendering="geometricPrecision" text-rendering="geometricPrecision" viewBox="0 0 4285.76 2448.96">
    <path id="ustecky" d="M1385.82.01c-7.56-.34-14.84 7.52-17.42 14.65-1.7 4.71 8.3 8.2 7.4 13.12-2.53 13.88-16.93 24.74-16.87 38.85.03 6.64 10.41 9.9 17.01 10.3 8.2.52 15.37-9.26 23.41-7.71 4.15.8 4.19 9.1 1.76 12.53-3.16 4.5-12.73 1.59-15.17 6.52-1.94 3.9 2.35 9.54 6.23 11.51 17.47 8.84 42.4 4.94 55.32 19.62 7.6 8.63 2.01 28.89-8.55 33.46-29.53 12.79-65.78.33-95.85 11.82-8.58 3.28 1.98 21.91-5.7 26.98-32.88 21.73-72.2 31.67-108.01 48.15-3.65 1.67-6.38 7.32-10.27 6.31-9.84-2.52-16.25-17.95-26.17-15.69-14.4 3.3-19.84 23.21-33.29 29.3-6.4 2.9-16.56-10.72-20.48-4.9-10.4 15.4-4.17 37.82-12.82 54.3-2.19 4.18-9.76-6.33-13.7-3.7-4.4 2.9.03 11.71-3.8 15.3-3.86 3.62-10.34 3.35-15.6 2.88-21.29-1.95-42.06-12.11-63.36-10.14-7.08.64-5.62 16.79-12.73 17.11-10.22.48-16.38-15.69-26.6-15.31-17.43.63-32.42 13.1-49.16 18.04-12.26 3.61-29.89-2.64-37.6 7.54-5.95 7.89 12.8 17.83 11.06 27.57-1.8 10-16.85 13.3-20.14 22.9-1.71 4.98 10.18 9.4 7.5 13.93-8.87 14.8-20.94 30.42-37.3 35.9-10.12 3.4-20.92-6.66-28.98-13.64-10.76-9.31-11.78-32.72-25.95-33.9-10.57-.88-.23 22.83-6.84 31.18-5.58 7.01-19.92 2.1-25.27 9.3-5.21 7.04 3.66 19-1.14 26.34-3.76 5.74-13.48 8.3-19.84 5.7-5.63-2.32-1.92-13.7-7.15-16.8-5.68-3.38-16.37-4.87-19.9.74-16.19 25.89-14.24 61.74-33.87 85.11-7.6 9.04-24.4 1.68-35.36-2.74-4.03-1.63 1.35-13.41-2.95-12.75-11.48 1.79-18.38 16.39-29.9 17.92-11.69 1.53-26.64-18.62-34.1-9.5-13.28 16.24-2.27 42.46-9.08 62.3-3.41 9.93-11.85 18.04-20.55 23.95-7.73 5.26-19.55 2.47-26.86 8.3-.36.28-.4.74-.26 1.31a7 7 0 016.42-.03c21.86 10.78 48.53 37.1 69.9 54.52 10.68 8.72 20.56 14.95 24.2 15.8.32.07.2.03.38.05.19-.65.74-2.61.42-6.93l4.34-7c16.23-6.61 29.26-9.9 40.17-10.22 10.92-.32 19.99 2.61 26.41 8.37 12.86 11.52 14.21 30.57 13.93 50.38-.28 19.81-2.75 41.39-1.83 58.83.45 8.72 1.78 16.34 4.2 21.98 2.42 5.64 5.58 9.27 10.68 11.57l3.15 2.83c15.87 26.88 20.22 42.97 16.32 55.08a22.6 22.6 0 01-10.8 12.74c-4.45 2.43-9 3.43-12.75 4.2-1.88.4-2.37.57-3.7.88a72.75 72.75 0 006.25 6.54c5.26 4.9 13.25 11.59 24.22 20.26a44.47 44.47 0 0110.32-1.5 32.3 32.3 0 0111.48 1.76c6.8 2.4 11.5 6.59 15.36 9.79 3.88 3.2 6.8 5.33 9.98 6.04 3.05.68 7.16.44 14.32-3.13a7 7 0 012.28-1.1c27-12.4 36.02-35.64 50.98-59.33 14.71-23.3 36.35-45.6 83.83-49.67 6.23-12.12 15.44-19.31 25.5-22.67 11.13-3.71 22.84-3.53 34.35-3.7 11.51-.17 22.8-.61 33.11-4.16 10.31-3.55 19.88-9.96 28.74-23.46l12.02.53c2.17 4.04 4.35 5.56 7.3 6.37 2.95.81 7.1.6 12.16-.94 10.12-3.1 23.14-11.42 35.1-21.06a291.82 291.82 0 0030.3-28.47c3.45-3.77 5.9-6.75 7.2-8.5l-.3-.21c2.44-10.29 7.33-18.3 14.08-23.67 6.75-5.37 15-7.97 23.7-8.94 17.42-1.95 37.35 2.16 57.28 6.24 19.93 4.09 39.83 8.2 55.42 7.53 15.58-.68 25.77-4.85 31.7-18.53l9.25-3.62c13.03 5.78 22.74 8.23 29.4 8.5 6.66.28 9.98-1.24 12.45-3.59 4.93-4.7 6.8-16.87 6.8-30.86-.01-14-1.84-28.54 2.75-40.15 2.3-5.8 7.86-11.21 14.98-11.95 5.11-.53 10.46.7 16.63 3.34 5.74-14.33 16.66-20.16 22.4-24.93 3.37-2.82 5.24-4.93 6.22-9.83.98-4.89.61-13.1-3.13-26.44l4.86-8.63.45-.12c-23.9-26.2-48.61-61.24-62.65-98.68-15.62-41.64-17.77-87.2 11.34-124.13l4.5-2.6c10.96-1.57 15.87-7.51 19.89-17.05 4.01-9.53 5.83-22.2 8.27-33.62 1.21-5.7 2.58-11.12 4.91-15.99 2.34-4.86 6.02-9.52 11.65-11.61 5.64-2.1 12.06-1.26 18.86 1.6 6.11 2.58 13.1 7.14 21.2 13.43 5.29-.85 8.3-2.88 11.04-6.17 3.14-3.79 5.68-9.59 8.44-16.29 2.76-6.7 5.79-14.27 11.01-21.2a44.93 44.93 0 0124.12-16.34c-.64-21.39 31.42-45.67 20.42-65.17-8.84-15.63-42 27.81-52.28 13.08-11.84-16.95 20.76-37.9 20.5-58.56-.14-12.64-11.02-24.24-21.55-31.2-4.97-3.3-11.27 7.52-16.95 5.72-3.8-1.22 1.06-9.4-2.11-11.81-5.78-4.38-16.87.21-21-5.76-.58-.88 3.84-1.1-4.26-1.1-8.36 3.24-15.15-12.87-24.1-12.07-10.42.94-16.24 17.2-26.68 16.56-8.62-.52-9.4-15.88-17.34-19.27-8.67-3.67-19.36 2.85-28.28-.13-8.49-2.83-12.3-15.99-21.23-16.39z" />
    <path id="liberecky" d="M1834.16 28.6l-3.23.01c-8.67.13-16.9 6-23.1 12.07-5.59 5.5-11.13 13.23-10.6 21.08.4 5.81 7.06 11 12.84 11.95 4.28.69 6.29-10.3 10.06-8.21 6.39 3.52 11.24 12.16 10.18 19.39-2.25 15.53-17.46 27.41-19.27 43.03-2 17.44 23.99 44.18 8.27 52.01-31.8 15.87-73.35-15.54-106.63-3-17.49 6.6-7.17 40.3-22.1 51.58-11.76 8.89-30.38 3.6-44.2-1.47-6.16-2.25-2.61-14.75-8.42-17.82-14.84-7.87-40.32-.87-51.69-10.57a7 7 0 01-2.13 1.02c-7.95 2.34-12.61 6.19-16.4 11.21-3.8 5.03-6.48 11.39-9.25 18.1-2.76 6.7-5.54 13.8-10.61 19.9-5.08 6.1-12.87 10.76-23.04 11.56l-4.94-1.52c-8.77-7.03-15.6-11.28-20.47-13.33-4.86-2.05-7.3-1.85-8.54-1.4-1.24.47-2.47 1.56-3.9 4.56-1.44 3-2.72 7.56-3.85 12.86-2.27 10.6-3.98 24.06-9.06 36.13-4.73 11.23-13.58 21.56-27.68 24.78-23.95 31.95-22.18 70.42-7.84 108.65 14.5 38.64 42.01 76.01 66.92 101.64a7 7 0 012.74 5.49c.08.35.13.37.22.41.13.07 1.6.42 4.15.01 5.12-.8 13.37-4.13 21.46-7.22 8.09-3.09 15.75-6.54 24.25-4.96 1.34.25 2.7.84 4.02 1.57a40.4 40.4 0 016.84-2.87c11.45-3.7 26.76-4.85 41.98-6.56 15.23-1.71 30.27-4.05 38.78-8.07 4.26-2.01 6.55-4.19 7.49-6.2.93-2.03 1.22-4.64-.92-9.73l8.3-9.47c26.92 7.38 38.54 5.51 49.97-.95 11-6.22 22.53-18.42 43.05-32.15 2.32-8.65 5.5-15.43 10.14-20.28a25.25 25.25 0 0118.95-7.77c13.69.37 27.01 9.02 41.45 19.99 28.63 21.74 61.54 54.78 86.82 66.27a7 7 0 012.9 1.77l22.15 17 6.65 4.17c14.74-16 31.85-21.61 48.05-20.56 17.74 1.15 34.26 9.12 48.62 16.41 14.36 7.29 27.13 13.54 33.33 13.67 3.1.07 4.13-.3 5.9-2.73 1.76-2.43 3.74-7.87 4.55-17.08.02-9 3.6-16.7 9.74-20.95 6.26-4.33 13.86-5.29 21.82-5.08 15.9.4 34.54 5.86 50.73 10 8.1 2.07 15.54 3.82 21.22 4.55 5.19.66 8.3-.05 8.78-.13 0-.58-.1-1.8-.84-3.88-1.75-4.95-6.54-13.4-15.14-25.09l-1.33-3.48c-5.92-61.49-7.43-136.92-37.96-213.42a7 7 0 01-.13-5c-18.44-8.12-34.32-26.04-54.18-25.02-14.3.75-16.75 24.08-28.65 32.05-3.68 2.46-11.41-.21-12.5-4.51-4.5-17.84-.58-43.3-2.52-55.14-1.97-11.85-3.25-10.45-8.96-14.31-5.73-3.84-15.08-.88-23.38-7.42-8.3-6.54-19.07-18.13-24.41-30.22-5.33-12.1-8.36-26.6-6.54-39.94 1.14-8.44 14.15-12.34 14.85-20.81.73-9.15-4.37-19.04-11.16-25.17-4.23-3.82-12.77 3.3-17.13-.38-4.9-4.13 1.03-17.69-5.33-18.52-14.27-1.86-28.45 18.77-41.36 12.41-9.86-4.85 5.85-23.91-.36-32.96-3.54-5.18-14.13 1.66-17.5 6.94-3.83 5.98 2.23 14.8-.56 21.33-1.21 2.8-6.06 1.49-9.08 1.13-5.68-.64-13.43.6-16.7-4.08-3.14-4.47 7.23-13.48 2.5-16.17-13.97-7.97-30.87-10.94-47.08-11.1z" />
    <path id="kralovehradecky" d="M2181.78 262.5c-7.54-.1-15.43 1.66-23 1.49 29.96 77.28 31.7 152.44 37.3 211.86 8.15 11.24 13.39 19.88 15.89 26.97 1.32 3.75 2.02 7.22 1.55 10.8a13.82 13.82 0 01-5.52 9.2c-5.78 4-12.05 3.43-18.95 2.55-6.9-.88-14.68-2.76-22.9-4.87-16.46-4.2-34.82-9.24-47.64-9.57-6.4-.17-11.1.94-13.48 2.6-2.4 1.66-3.8 3.66-3.71 9.76l-.03.7c-.92 10.67-2.97 18.48-7.2 24.29-4.21 5.8-11.12 8.64-17.52 8.5-12.81-.28-25.29-8.04-39.37-15.19-14.08-7.14-29.18-14.01-43.19-14.92-14-.91-27 3.12-40.33 20.02l-9.22 1.6-11.96-7.52-.54-.37-20.12-15.44c-3.18 1.45-5.06 3.13-6.3 4.92-1.6 2.34-2.37 5.25-2.28 9.28.18 8.08 4.44 19.83 9.66 31.88s11.24 24.4 14.06 35.91c1.4 5.76 2.08 11.42.8 17a21.64 21.64 0 01-10.06 13.63c-7.4 5.6-11.93 10.42-14.25 14.14-2.35 3.76-2.61 6.07-2.2 8.32.83 4.5 6.9 10.78 16.18 17.54 9.27 6.76 20.86 13.96 29.95 23.46 7.78 8.13 13.68 18.78 13.34 31.33 26.41 7.33 54.12 2.03 77.36 5.8 12.4 2.01 24.2 7.72 31.02 20.08 6.82 12.37 8.95 29.98 6.7 56.37l-.1.65c-6.09 33.6-13.78 50.48-12.8 59.66.48 4.6 2.27 8.23 8.54 14.02 6.17 5.71 16.6 12.85 32.36 22.5a7 7 0 011.45.86c8.66 5.08 16.45 3.79 26.83-1.12 10.66-5.04 22.73-14.2 35.9-22.53 13.15-8.33 27.67-15.98 44.13-16.83 14.92-.77 30.88 4.66 46.89 18.74 18.21-16.5 32.13-31.66 47.82-36.9 8.56-2.86 18.31-1.68 26.63 4.36 6.63 4.81 12.73 12.32 19.13 22.83 18.37-19.54 35.32-28.68 51.64-29.57 18.25-.99 33.94 8.28 48.1 20.21 28.3 23.87 53.59 59.04 83.52 65.83l3.8 2.31c13.61 16.12 43.2 25.06 68.71 26.5 12.75.72 24.47-.36 32-2.51 1.72-.5 3.14-1.06 4.36-1.61.1-.3.21-.94.28-1.1.27-.6.37-.73.47-.89l.47-.71c1.2-1.74 3.93-5.3 8.33-10.67a459.74 459.74 0 0141.88-44.61c18.14-16.78 39.4-33.3 61.43-42.72 19.23-8.22 39.85-10.9 58.04-2.24-5.84-21.26-2.4-45.84-13.17-65.12-20.37-36.44-48.5-68.81-79.35-96.94-7.61-6.94-23.87 4.25-30.73-3.43-11.93-13.35-5.38-37.74-17.68-50.74-7.8-8.26-22.84-6.45-33.88-3.73-9.54 2.34-14.4 20.5-16.63 23.42-4.75 6.29-13.34-39.6-26.54-51.3-4.54-4-14 6.35-18.1 1.9-6.86-7.48-7.39-19.43-7.36-29.58 0-4.06 3.42-9.38 7.48-9.68 4.76-.34 5.47 6.1 8.55 2.44 3.77-4.5-4.12-6.1-1.2-11.18 6.1-10.67 16.78-19.03 27.96-24.11 4.72-2.12 10.88 8.13 14.79 4.76 6.76-5.83 1.3-20.7 8.98-25.23 9.71-5.73 23.64 4.72 33.85-.06 10.5-4.93 18.77-15.51 22.6-26.45 1.63-4.63-10.8-6.75-9.3-11.42 1.66-5.27 13.07-1.66 15.12-6.78 2.55-6.36-8.09-14.4-4.32-20.11 5-7.56 18.75-4.26 24.86-10.91 2.84-3.1-1.03-8.83-3.74-12.02-19.65-23.27-36.17-51.42-62.6-66.55-19.7-11.25-46.22-15.5-67.6-7.92-11.18 3.96-1.51 24.8-8 34.76-4.12 6.37-13.39 11.34-20.74 9.42-6.52-1.7-4.36-14.04-10.14-17.5-13.51-8.05-29.08-16.87-44.72-15.17-9.94 1.08-15.68 13.27-20.21 22.2-4.53 8.82-.86 20.68-6.04 29.17-3.83 6.26-11.44 11.6-18.8 11.51-8.76-.1-22.69-3.3-23.37-12.02-.73-9.29 21.09-9.12 21.01-18.43-.15-19.17-3.82-46.1-21.57-53.37-24.62-10.07-56.12 26.07-78.88 12.27-23.99-14.54-6.3-64.11-30.37-78.5-20.4-12.22-45.18 22.48-68.74 19.23-24.91-3.44-41.72-29.08-65.33-37.76a29.78 29.78 0 00-9.94-1.65z" />
    <path id="stredocesky" d="M1786.53 438.06c-3.61-.1-5.85.7-8.45 3.43-2.6 2.73-5.38 7.96-7.4 16.5l-2.99 4.27c-20.72 13.5-31.6 26.03-46.04 34.19-12.5 7.07-27.31 9.47-49.73 4.86a21.35 21.35 0 01-1.82 8.99c-2.83 6.11-8.2 10.13-14.2 12.97-11.97 5.66-27.73 7.58-43.2 9.32-15.46 1.74-30.7 3.22-39.24 5.97-1.55.5-2.48 1.03-3.46 1.54.36 3.27.07 6.79-.72 10.84l-12.82 2.35a20.71 20.71 0 01-3.22-12.6c-2.95.37-8.04 1.54-14.2 3.9-7.75 2.95-16.15 6.68-24.25 7.96-4.06.64-8.35.8-12.58-1.3a13.2 13.2 0 01-3.91-3.03c2.2 10.08 2.65 17.98 1.35 24.48-1.65 8.25-6.37 13.98-11 17.84-9.27 7.71-17 9.37-20.2 25.4l-10.2 4.78c-8.43-4.58-13.92-5.65-16.14-5.42-2.21.23-2.3.39-3.4 3.17-2.2 5.57-1.78 20.27-1.77 35 0 14.71-.34 30.7-11.14 41-5.4 5.14-13.32 7.83-22.7 7.44-7.95-.33-17.29-2.75-28.46-7.23-8.97 14.25-24.42 20.16-40.7 20.87-18.42.8-38.98-3.73-58.83-7.8-19.85-4.06-39.01-7.6-52.92-6.04-6.95.78-12.41 2.7-16.54 5.99-3.58 2.84-6.37 6.93-8.3 13.09.2 1.23.13 2.22 0 2.8-.79 3.43-1.52 3.45-2.45 4.75-1.87 2.6-4.76 6.02-8.62 10.24a303.49 303.49 0 01-31.84 29.9c-12.67 10.22-26.4 19.46-39.79 23.56-6.68 2.04-13.47 2.84-19.97 1.05a24.45 24.45 0 01-9.49-5.22c-9.17 11.12-19.64 17.85-30.3 21.52-12.89 4.44-25.79 4.74-37.45 4.92-11.67.17-22.1.3-30.12 2.98s-14.03 7.19-18.94 18.75l-6.02 4.25c-46.71 2.84-62.79 21.07-76.97 43.54-13.1 20.74-23.62 46.32-50.99 61.54l4.22 6.86-.75 8.34c-6.94 7.72-10.77 13.67-12.26 17.44-1.5 3.77-.99 4.42-.56 5.04.43.61 2.32 2 6.1 2.96 3.77.96 9 1.5 14.74 1.72 11.47.46 24.83-.28 35.48.66 5.03.44 9.5 1.05 13.7 3.52.29-.12.56-.33.84-.43 5.5-1.86 11.34-1.43 18.23-.25 13.77 2.34 31.5 8.71 49.68 17.45 18.18 8.74 36.66 19.84 51.24 31.96 13 10.8 23.34 22.29 26.58 35.12 18.73 5 32.2 12.77 40.6 23.45 9.08 11.57 11.92 25.84 11.16 40.87-1.48 29.18-15.53 62.8-27.15 97.72 10.93 16.25 15.27 28.48 12.17 39.07-3.3 11.3-13.72 16.75-24.4 21.28-18.69 7.9-41.39 14-54.68 33.3 5.56.96 10.32 2.88 13.92 5.98 6 5.15 8.3 12.87 7.5 19.9-.81 7.28-4.57 14.3-10.38 19.5 12.11 4.71 20.73 11.23 26.32 19.26 8.28 11.89 9.63 25.9 9.2 39.42-.41 13.52-2.55 27-2.58 38.8-.03 10.35 1.42 18.94 6.18 25.84 34.58-11.39 56.09-4.53 73.51 1.62 17.86 6.3 31 11.68 59.01-.98 7.82-20.5 14.94-31.85 25.23-36.2 5.4-2.28 11.23-1.91 16.19-.25 4.96 1.66 9.4 4.4 13.94 7.4 9.07 6.04 18.52 13.33 29.56 17.6 10.54 4.08 22.37 5.64 37.72.76 12.71-19.57 25.65-29.34 39.06-31.64 13.94-2.38 26.54 3.17 38.02 9.32 11.48 6.15 22.38 13.12 32.71 16.16 10.34 3.04 19.6 2.95 31.33-5.36l3.63 1.2c.27-1.97 4.56-.45 3.62-1.53-.44-.2-.68-.28-.82-.32l.6.06c-.13-.19-.05-.15.1 0 .44.04 1.03.07 1.7.08 2.72.05 7-.05 12.2-.25 10.38-.4 24.47-1.16 38.74-1.64 14.27-.48 28.68-.7 40.12.06 5.72.37 10.65.96 14.84 2.08 2.1.56 4.02 1.22 5.93 2.4a11.2 11.2 0 014.28 4.67c8.07 13.29 16.76 17.45 26.45 17.32 9.75-.13 21.25-5.56 32.03-14.84 21.55-18.55 38.98-51.97 38.07-75.69l13.45-2.97c-.43-1.03-.61-1.28-.5-1.15.12.13.53.63 1.28 1.09 1.5.92 4 2.18 7.17 3.62 6.35 2.88 15.43 6.56 26.13 11.17 19.3 8.32 43.94 19.75 68.73 35.83 2.48-7.52 5.45-13.14 8.85-17.47 4.6-5.84 9.95-9.05 14.29-11.2 4.34-2.13 7.47-3.42 9.55-5.21 2.07-1.8 3.83-4.18 5.2-10.52l6.5-5.52c38.73-1.94 69.94 3.95 94.6 2.28 22.44-1.52 39.38-8.12 55.8-32.77-14.49-5.18-24.57-14.76-29.87-26.33-6.42-13.99-6.38-30.22-2.36-45.3 4.03-15.07 12.07-29.16 23.01-39.1 10.42-9.48 24.08-15.08 38.43-12.57 44.8-13.37 59.64-24.87 72.48-39.64 12.8-14.74 24-34.17 57.33-59.61 27.06-54.4 16.9-100.84-20.62-127.83-20.03-2.98-32-18.9-39.7-31.62-4-6.61-7.19-12.66-9.35-15.62-1.08-1.48-1.99-1.94-1.25-1.6.09.03.35-.03.5-.01l-6.1-10.98c1-.84 2.34-1.42 3.76-1.85 11.49-3.9 15.38-7.77 16.36-9.99 1.03-2.31.4-5.38-1.38-10.3-1.77-4.94-5-11.22-2.88-18.98 1.06-3.88 3.73-7.54 7.46-10.28a31.9 31.9 0 011.6-1.08c-10.35-6.61-18.04-12.11-23.8-17.43-7.7-7.13-12.09-14.65-12.96-22.82-1.73-16.3 7.06-31.43 12.9-63.33 2.09-24.82-.45-39.78-5.03-48.07-4.6-8.34-10.92-11.39-20.99-13.02-20.14-3.27-52.5 3.43-84.98-7.86l-4.57-7.97c2.07-10.53-1.7-17.78-9.03-25.45-7.34-7.67-18.24-14.64-28.08-21.82-9.85-7.17-19.54-14.58-21.7-26.32-1.08-5.87.36-12.3 4.08-18.27 3.73-5.97 9.57-11.79 17.99-18.12l.83-.54c2.5-1.38 3.2-2.5 3.73-4.81.53-2.3.35-6-.76-10.56-2.23-9.13-7.94-21.3-13.3-33.67-5.36-12.38-10.54-24.95-10.81-37.13-.13-6.09 1.13-12.3 4.76-17.55a25.7 25.7 0 014.22-4.7c-26.76-15.82-54.51-43.92-78.36-62.03-13.7-10.4-26.14-16.94-33.35-17.14zm-269.78 420.37c1.23 0 2.46.03 3.69.08 17.18.74 34.2 6.57 55.78 16.26l1.82 1.19c28.7 25.85 44.82 42.77 50.44 64.9 5.62 22.11.35 46.85-10.19 88.35l-9.18 4.85c-23.12-8.43-48.22-5.72-75.2 2.77-26.45 8.33-54.36 22.18-82.7 35.39-4.02 6.19-7.79 10.98-11.66 14.29-4.3 3.66-9.24 5.9-14.33 5.48-5.1-.41-9.16-3.37-12.1-6.74-2.95-3.37-5.17-7.38-7.22-11.76-4.1-8.76-7.41-19.14-10.87-28.07-3.43-8.88-7.56-16.14-9.88-18-12.34-8.44-18.56-18.86-20.9-29.02-2.38-10.25-1.3-19.94-.92-28.13.37-8.18.01-14.44-2.84-19.06-2.85-4.61-8.77-9.13-23.28-12.32l-1.63-13.1c29.38-14.75 50.06-17.14 66-20.1 15.93-2.98 26.75-5.87 42.4-22.82l1.9-1.45c27.47-14.42 47.38-22.05 67.17-22.9 1.24-.06 2.47-.09 3.7-.09z" />
    <path id="olomoucky" d="M3009.88 562.18c-5.17.2-10.77 4.07-13.6 8.28-6.72 9.92-15.76 23.02-11.3 34.15 4.44 11.07 25.2 6.7 31.67 16.72 13.66 21.13 10.35 50.83 25.17 71.17 8.6 11.8 33.18 5.17 39.9 18.14 11.35 21.89 8.83 48.92 7.7 73.56-.17 3.96-8.16 6.46-11.21 3.96-8.45-6.86-7.12-24.87-17.68-27.48-7.32-1.81-1.65 17.57-8.35 21.07-10.86 5.64-25.93-3.5-36.67 2.39-7.24 3.97-4.09 16.63-9.46 22.92-1.08 1.27-2.69 1.93-4.46 2.2a7 7 0 01-1.04 3.06c-22.48 36.66-20.85 76.88-23.87 113.49-1.5 18.3-4.2 35.8-12.7 51.08-7.81 14.09-20.79 25.77-40.54 33.64 1.34 23.87 6.07 77.67 11.18 121.87 2.67 23.16 5.44 43.4 7.62 53.93l.1.43 5.04-.23c5.47 34.04 19.9 49.93 32.96 67.77 13.06 17.84 24.15 38.35 17.87 74.73l-3.33 4.83c-9.71 5.76-12 9.7-12.39 11.75-.39 2.04.73 4.95 3.41 9.67s6.6 10.72 7.44 18.72c.79 7.42-1.7 15.91-8.64 24.53-.3 7.37-1.27 12.99-3.23 17.57-2.17 5.1-6.26 9.04-10.87 10.35-9.23 2.63-16.52-2.15-22.07-4.39a25.26 25.26 0 00-5.52-1.67c-.31.8-1.01 3.32-.9 8.34.11 4.35.93 10.8 2.2 18.5 10.67-1.45 19.63-2.31 26.33-2.25 8.2.07 14.15.93 18.96 4.45 4.81 3.52 6.27 10.13 5.45 15-.82 4.85-2.87 9.25-5.06 13.96-4.4 9.42-9.5 19.83-9.93 29.42-.44 9.6 2.53 18.74 17.67 29.04l1.7 9.95c-6.2 8.39-9.08 15.29-9.88 20.45-.8 5.16.18 8.53 2.15 11.36 3.93 5.66 13.9 9.31 24.63 8.47 10.73-.83 21.1-5.9 25.83-13.99 4.73-8.09 5.43-20.3-6.54-39.45l-1.05-3.33c-.76-13.97-.24-23.64 2.03-30.89 1.14-3.62 2.79-6.81 5.6-9.21a13.86 13.86 0 0110.25-3.03c6.8.82 11.71 4.97 17.09 10.15 5.37 5.17 10.92 11.83 16.59 19.23 11.34 14.8 23.12 32.59 32.84 46.15 4.86 6.78 9.25 12.52 12.5 16.05a25.38 25.38 0 003.58 3.34c.57.38-.54-.77-3.06.26l7.61 11.07c.05-.1.17-.09.38.53.41 1.25 2.06 4 4.85 7.25 5.6 6.48 15.3 15.11 25.93 25.07 18.3 17.14 39.82 38.42 48.96 64.22 6-4.16 13.69-7.14 21.99-10.33 14.17-5.43 30.82-10.54 45.49-16.78 14.67-6.25 27.05-13.75 32.98-22.29 5.94-8.54 7.23-17.98-1.6-34.03l-.87-3.42c.08-12.08 1.24-20.54 4.3-27.02 3.08-6.48 9.8-10.71 16.08-10.46 6.29.25 11.68 3.1 17.31 6.58 5.63 3.48 11.44 7.86 17.4 12.26 11.92 8.8 24.66 17.47 34.43 19.42 4.89.97 8.73.58 12.58-1.67 3.46-2.02 7.19-6.06 10.77-13.07-1.95-6.12-1.95-12.12.97-16.89 3.47-5.65 9.32-8.25 15.35-9.86 12.07-3.23 27.35-2.98 41.06-3.84 6.85-.43 13.25-1.1 18.18-2.3 4.93-1.19 8.11-2.96 9.37-4.43 1.26-1.46 1.9-2.78.68-7.34-1.22-4.57-4.9-11.7-12.12-21.09l2.92-10.74c9.4-3.83 20.31-2.66 32.06-1.35 11.75 1.32 24.25 3.25 34.85 3.3 10.6.04 18.61-1.9 22.88-6.23 4.26-4.32 6.92-12.43 3.63-29.54l.42-4.04c7.22-17.1 16.13-26.47 26.04-30.41 9.91-3.95 19.47-2.23 27.08-.85 7.6 1.38 13.16 2.08 16.38.63 3.15-1.43 6.93-5.48 9.87-19.1.03-.34.08-.68.15-1.01.2-5.03-2-14.02-4.7-17.68-1.42-1.93-2.07-2.02-2.38-2.01-.19 0-1.14.49-2.45 1.51a14.05 14.05 0 01-5.93 5.33l-8.36-10.7a39.6 39.6 0 013.35-3.75c.01-.33.05-.37.05-.95.02-2.7-1.1-7.52-3.58-13.16-4.94-11.27-14.9-25.91-27.36-39.14-12.47-13.24-27.5-25.13-42.22-31.7-14.71-6.59-28.46-7.91-40.5-1.64l-10.14-7.36c2.7-16.16 1.42-27.37-2-35.5-3.43-8.15-9.04-13.65-16.74-18.28-15.38-9.22-38.9-13.43-60.64-22.83-33.19-12.16-45.11-29.53-50.1-47.04-4.15-14.58-4.77-28.2-11.6-41.85-9.96 13.06-18.24 24.1-27.56 32.7-11.33 10.43-24.86 17.73-45.36 22.94l-8.47-8.65c4.15-15.05 5.4-25.39 4.9-31.26-.24-2.93-.89-4.65-1.4-5.48-.5-.82-.72-.94-1.4-1.18-1.37-.48-5.63-.28-11.28 1.78-5.64 2.05-12.48 5.53-19.48 9.34-14.02 7.63-27.71 16.87-40.54 18.2-3.21.33-6.7.1-9.96-1.68-3.27-1.77-5.71-5.12-6.8-8.68-1.25-4.13-1.26-8.75-.47-14.17-4.3.4-8.7-.11-12.72-1.69-8.93-3.5-16.78-10.79-22.39-20.39-10.69-18.3-12.35-45.88 6.69-71.85-11.33-22.24-12.19-46.25-7.03-70.3 5.32-24.83 16.73-50.02 29.4-75.3-5.34-25.8-.32-47 10.5-63.84 11.18-17.4 27.9-30.38 44.73-41.9 16.82-11.51 33.87-21.66 46-32.32 12.12-10.67 18.96-20.92 18.34-34.3a7 7 0 012.94-6.12c-.4-5.35.77-12.93-2.6-16.26-4.91-4.86-13.38-4.2-20.3-4.55-5.45-.28-12-.82-16.2 2.68-4.66 3.86-5.75 22.58-7.14 16.7-4.85-20.56 10.49-47.74-3.84-63.22-10.7-11.55-31.47 13.96-46.4 8.97-19.78-6.62-35.07-23.88-47.7-40.46-4.12-5.4 7.66-17.88 1.34-20.34-11.7-4.55-25.07 9.8-37.16 6.4-10.01-2.8-11.67-18.81-21.28-22.77-11.14-4.59-24.54 2.3-36.15-.9-12.89-3.55-22.24-16.54-35.4-18.8-5.75-1-8.7 12-14.28 10.2-16.45-5.29-26.89-23.04-43.23-28.68a9.38 9.38 0 00-3.47-.5z" />
    <path id="karlovarsky" d="M460.84 572.7c-6.8.33 1.4 23.8-6.17 29.4-5.18 3.81-1.37-17.5-7.8-17.66-14.3-.36-28.85 7.08-39.69 16.45-9.5 8.2-5.93 28.96-17.75 33.27-8.87 3.24-12-15.98-20.91-19.14-6.53-2.32-13.51 3.01-20.28 4.52-6.76 1.51-49.92-6.7-80.56 12.01-13.96 8.54-6.11 33.19-15.44 46.64-2.68 3.85-8.75-8.86-12.62-6.22-10.9 7.44-13.55 23.56-24.22 31.33-5.6 4.07-16.74-4.18-20.79 1.46-5.08 7.07 3.85 17.91.95 26.14-1.43 4.07-7.96 3.38-11.95 5.07-6.84 9.23-16.7 16.88-20.53 27.71-2.48 6.98 7.45 16.2 2.9 22.04-3.4 4.38-14.2-11.12-15.59-5.78-5.84 22.43 7.82 48.11-1.05 69.52-3.32 8.05-18.51-.29-25.53-5.4-5.9-4.34-9.65-12.68-9.22-20 .49-8.48 15.1-14.82 11.74-22.61-5.46-12.65-27.14-12.86-32.52-25.56-2.7-6.36 13.72-6.46 16.21-12.91 1.6-4.15-2.61-9.95-6.76-11.53-10.35-3.99-26.09 4.78-33.1-3.82-10.11-12.39 3.77-37.01-8.55-47.17-12.85-10.61-40.48-14.86-50.04-1.18-9.23 13.21 22.72 28.1 20.12 44.01C29.6 756 6.6 754.87.59 766.27c-2.9 5.5 5.46 12.3 11.03 15.06 8.04 3.98 19.9-2.26 26.7 3.6 6.04 5.24-.05 17.16 4.73 23.57 5.26 7.04 17.4 6.36 22.76 13.32 6.4 8.3 11.06 19.26 10.4 29.73-.58 9.34-11.91 15.3-13.8 24.48-2.11 10.33-3.92 23.06 2.3 31.55 11.34 15.48 35 18.85 46.1 34.5 3.86 5.43-13.82 13.53-8.83 17.96 9.15 8.12 25.85-.22 36.2 6.32 5.41 3.4-.71 14.17 3.65 18.86 2.33 2.52 5.75-7.33 8.68-5.55 8.05 4.88 10.13 16.66 18.05 21.75 11.72 7.57 28.41 6.05 39.06 15.08 4.62 3.9-5.34 15.7.18 18.18 6.47 2.9 11.98-10.27 19.02-9.56 7.2.74 12.07 8.2 17.24 13.27 2.58 2.54 6.86 5.83 5.7 9.26-3.45 10.29-23.2 17.66-17.96 27.17 8 14.5 31.77 11.23 44.8 21.43 2.9 2.28 3.32 6.19 3.6 10.2a6.97 6.97 0 012.12.09c45.6 8.57 59.92 5.58 76.53-1.62 16.62-7.19 36.23-19.8 85.44-28.74l4.82.86c23.16 13.73 38.8 16.45 50.76 13.87 11.97-2.59 21.59-10.88 31.75-22.59 20.21-23.28 41.29-59.33 86.64-71.18 12.1-6.7 25.97-4.34 38.55.08 12.99 4.56 25.6 11.47 35.8 15.54 5.09 2.04 9.55 3.3 12.6 3.5 3.03.2 4.13-.23 5.3-1.45 1.19-1.22 2.81-4.34 3.45-10.73.64-6.4.29-15.75-1.48-28.37l7.12-7.97c10.98.29 18.8-.07 23.88-.8 2.47-.36 4.17-.88 5.3-1.3a28.68 28.68 0 00-3.1-4.28c-2.04-2.38-4.54-5.05-6.81-7.96-2.28-2.9-4.55-5.96-5.35-10.41-.8-4.45 1.66-10.32 5.88-13.17.83-.56 1.72-1.05 2.64-1.5a337.28 337.28 0 01-16.98-14.52c-6.25-5.84-9.89-9.63-11.86-14.45-1-2.4-1.43-5.73-.12-8.67a11.07 11.07 0 015.57-5.42c3.78-1.8 7.17-2.12 10.58-2.82 3.42-.7 6.67-1.59 8.89-2.8 2.22-1.2 3.39-2.32 4.17-4.74 1.53-4.74.02-17.63-14.23-42.2a35.78 35.78 0 01-15.47-17.46c-3.44-8.02-4.81-17.13-5.32-26.77-1-19.29 1.56-41.01 1.82-59.76.27-18.75-2.3-33.51-9.27-39.75-3.48-3.12-8.29-5.05-16.66-4.8-7.5.22-17.8 2.58-30.81 7.51-.1 4.39-.91 8.17-3.35 11.51a13 13 0 01-7.06 4.8 16 16 0 01-7.68-.09c-9.57-2.23-18.78-9.53-29.87-18.58-22.18-18.1-49.77-44.2-67.24-52.81a7 7 0 01-3.99-6.57c-15.2-13.74-48.12-49.54-70.75-56.98a4.4 4.4 0 00-1.57-.25z" />
    <path id="moravskoslezsky" d="M3508.05 662.3a38.1 38.1 0 00-3.03.06c-8.71.56 6.61 18.88 1.8 26.15a89.35 89.35 0 01-41.06 33.17c-6.31 2.46-10.81-9.9-17.6-10.26-20.18-1.04-40.86.78-60.33 6.21-12.33 3.45-21.51 16.6-33.19 20.66.05.3.08.59.1.88.86 18.68-9.43 33.45-23.08 45.46-13.65 12-31.03 22.2-47.35 33.37-16.3 11.16-31.43 23.23-40.85 37.9-9.43 14.69-13.7 31.82-8.15 55.7l-.57 4.74c-12.95 25.68-24.27 50.73-29.27 74.07-5 23.33-3.9 44.58 7.54 64.49l-.66 7.92c-18.92 23.07-16.62 45.22-8.14 59.75 4.24 7.26 10.2 12.38 15.4 14.42 5.2 2.03 8.88 1.66 12.47-1.77l11.57 6.96c-3.11 11.06-3.11 17.8-2.56 19.62l.15.47c.01 0 .47.18 1.77.05 5.7-.6 20.91-8.75 35.3-16.57 7.19-3.92 14.44-7.68 21.38-10.21 6.95-2.53 13.8-4.25 20.7-1.83a17.05 17.05 0 018.7 7.06c2.04 3.31 3.06 7.21 3.43 11.65.53 6.42-.27 14.24-2.39 24.05 12.12-4.19 20.32-9.26 27.87-16.22 9.72-8.97 18.61-21.53 32.26-39.12l11.22.2c14.36 20.06 14.4 39.65 18.64 54.54 4.23 14.89 10.97 26.62 41.63 37.8l.39.15c19.6 8.52 43.53 12.4 62.45 23.75 9.46 5.67 17.71 13.6 22.44 24.84 3.66 8.7 5.12 19.16 4.24 31.72 13.57-3.17 27.9-.52 41.21 5.43 17.16 7.67 33.27 20.64 46.7 34.88 13.42 14.25 24.1 29.7 30 43.13a57.15 57.15 0 014.25 13.42c5.85.08 10.57 3.66 13.49 7.62 5.15 6.98 7.51 15.9 7.51 24.06 23.74 15.9 49.38 15.96 77.12 14.43 28.27-1.56 58.4-4.96 87.45 7.77 39.46-5.3 67.78 12.35 89.92 34.31 22.51 22.33 40.18 48.98 59.67 63.01a7 7 0 013 5.62c4.68 1.84 11.65 4.37 22.2.88 7.04-2.34 11.94-9.42 15.78-15.77 4.23-6.96 3.1-16.53 7.82-23.17 9.17-12.92 26.44-19.85 32.97-34.3 3.18-7-8.19-14.16-7.58-21.83.47-6.15 5.34-11.88 10.5-15.24 8-5.2 17.63-10.44 27.11-9.28 7.22.9 8.9 14.64 16.17 14.68 13.2.05 23.71-14.71 36.91-14.41 15.28.35 27.79 18.68 42.87 16.24 16.12-2.6 24.48-22.2 39.06-29.52 7.72-3.87 5.99 3.1 13.68-.8 3.08-1.55 2.84-4.39 3.33-7.8 1.39-9.85 14.3-16.82 13.3-26.71-.96-9.5-15.1-13.15-18.22-22.2-11.34-32.9-5.02-72.64-24.42-101.53-7.64-11.39-27.23 4.57-40.93 4.25-5.33-.12-11.63-1.47-14.96-5.6-4.4-5.42.16-16.68-5.9-20.13-14.5-8.26-38.25 1.78-48.9-11.1-24.1-29.22-39.32-66.64-46.07-103.9-2.35-13 22.6-20.37 21.18-33.5-1.15-10.67-22.6-8.18-26.7-18.1-5.12-12.43 8.13-27.98 2.63-40.22-3.06-6.8-16.28-7.8-22.17-3.21-4.52 3.52 8.05 11.4 5.23 16.4-3.66 6.47-12.97 12.05-20.05 9.77-19.95-6.45-33.52-26.55-53.32-33.47-19.87-6.94-41.81-9.22-62.76-7.09-5.57.57 12.45 6.78 11.5 12.29-.9 5.2-11.15 2.1-14.67 6.03-3.15 3.53 1.3 14.72-2.85 13.54-11.3-3.27-21.4-11.76-27.96-21.5-4.47-6.6 4-19.37-2.63-23.8-10.95-7.29-28.33 3.18-39.29-4.1-7.83-5.21-.93-20.67-7.74-27.16-5.04-4.8-14.95-3.71-20.9-.1-5.73 3.45-2.1 17.6-8.77 18.07-11.85.83-24.92-5.9-32.21-15.26-9.2-11.81-4.18-31.03-13.23-42.97-7.74-10.22-20.84-17.32-33.6-18.8-7.9-.92-15.6 6.14-20.4 12.52-2.86 3.78-3.83 11.76.22 14.24 7.74 4.73 21.13-4.32 27.13 2.46 6.38 7.25 8.48 23.42.6 29-7.77 5.45-16.9-11.28-26.4-10.82-11.39.56-22.53 6.44-31.38 13.6-8.35 6.76-9.32 20.64-18.28 26.58-9.5 6.29-22.14 9.87-33.29 7.62-10.86-2.19-19.83-11.1-26.78-19.72-3.46-4.3 2.07-13.07-2.33-16.36-8.48-6.34-22.62-1.45-30.7-8.27-6.08-5.12-2.83-15.87-6.35-22.97-9.7-19.66-20.06-39.25-33.09-56.88-4.26-5.77-10.72-12.58-17.89-12.02-5.6.44-3.78 12.57-9.19 14.15-5.83 1.68-12.66-2.3-17.07-6.5-14.38-13.63-45.38-27.36-38-45.75 9.01-22.48 46.92-14.35 67.34-27.35 6.25-3.97 2.07-16.48 8.15-20.7 7.02-4.85 19.74 3.77 25.46-2.54 6.5-7.18 7.22-20.2 3-28.9-4.73-9.73-24.31-8.47-26.32-19.1-2.84-15.1 20.24-29.53 14.46-43.73-5.66-13.91-23.47-23.37-38.83-23.65z" />
    <path id="pardubicky" d="M2982.51 800c-.3.01-.6.06-.9.16-8.77 2.59-15.8 10.46-20.4 18.35-7.72 13.25-6.68 30.8-15.57 43.3-5.06 7.14-17.5 5.32-23.53 11.67-10.26 10.83-9.5 33.15-23.58 38.05-15.17 5.27-32.01-6.2-46.18-13.75-10.7-5.7-22.16-12.63-29.3-22.41a7 7 0 01-7.62-.27c-15.2-10.56-32.8-9.26-52.34-.9-19.53 8.35-39.95 23.95-57.42 40.12a447.54 447.54 0 00-40.57 43.2c-1.63 2-1.77 2.27-2.94 3.76a15.58 15.58 0 01-5.29 9.66c-3.48 2.95-7.73 4.74-12.67 6.15-9.86 2.82-22.66 3.82-36.62 3.03-27.1-1.54-58.54-9.67-76.89-29.72-36.7-9.5-61.9-46.71-87.38-68.2-12.98-10.94-25.25-17.64-38.31-16.93-13.06.71-28.7 8.86-48.3 31.93l-11.48-1.18c-7.78-14.32-14.6-22.75-19.98-26.66-5.38-3.91-8.76-4.15-13.97-2.41-10.42 3.48-26.11 19.56-47.65 38.38l-9.54-.31c-15.67-15.57-28.78-19.85-41.24-19.2-12.45.63-24.91 6.8-37.36 14.67-12.45 7.88-24.63 17.32-37.4 23.36-11.85 5.6-25.36 7.96-37.98 1.58-3.74 1.27-6.24 2.56-7.69 3.62-1.77 1.3-2.03 1.98-2.22 2.67-.38 1.38.61 5.16 2.55 10.54 1.93 5.38 4.5 12.89 1 20.74-2.25 5.06-6.75 9.15-13.36 12.7 2.81 4.26 5.45 9.17 8.61 14.4 7.4 12.21 16.61 23.99 31.34 25.36l3.36 1.23c42.37 29.63 54.8 83.2 29.1 140.22 22.55 8.64 34.47 26.13 45.21 36.91 5.98 6 11.24 9.84 17.81 10.98 6.57 1.14 15.46-.25 29-7.55l7.58.6c24.53 18.8 53.9 30.81 78.02 43.86 12.06 6.53 22.88 13.32 31.1 21.93 7.66 8.04 12.76 18.06 13.65 29.78 14.17 21.75 25.06 28.59 32.24 29.27 7.31.7 14.28-4.31 21.7-12.45 7.4-8.13 14.05-18.45 22.18-25.21 4.07-3.38 9.24-6.25 15.3-5.5 5.38.68 9.86 4.18 13.69 9.22 75.66 32.36 158.7 56.6 232.81 121.89a22.9 22.9 0 015.88-5.03c5-2.97 10.64-4.11 16.5-4.57 11.7-.93 24.86.9 37.3 1.48 12.44.59 23.84-.2 31.28-4.3 7.43-4.1 12.48-10.97 13.07-27.87l8.35-6.63c48.2 9.54 99.47-1.73 150.42 23.3 3.4-4.94 3.87-8.4 3.54-11.55-.42-3.98-2.84-8.25-5.7-13.28-2.85-5.03-6.48-11.34-4.98-19.2 1.35-7.08 6.77-13.17 16.04-19.2 4.69-30.93-3.64-44.68-15.74-61.22-10.71-14.63-24.69-31.12-32.25-59-.06-.03-.13 0-.2-.02-3.82-1.04-4.35-3-4.95-4.08a16.3 16.3 0 01-1.27-3 66.2 66.2 0 01-1.84-7.31c-2.42-11.67-5.12-31.84-7.82-55.16-5.39-46.64-10.56-105.08-11.64-127.79l4.72-6.95c20.2-6.96 31.1-16.8 37.96-29.17 6.86-12.37 9.53-27.81 10.98-45.44 2.9-35.25.88-78.88 25.88-119.66a7 7 0 01.43-.62c-2.09-2.26-4.09-4.52-6.53-4.38z" />
    <path id="praha" d="M1516.77 872.43c-1.04 0-2.08.03-3.11.07-16.4.71-34.13 7.16-60.42 20.9-17.1 18.03-32.7 22.99-49.1 26.04-13.3 2.48-27.45 4.28-46.54 11.84 6.68 3.38 11.68 7.52 14.8 12.58 5.39 8.72 5.3 18.31 4.91 27.05-.4 8.73-1.12 17.01.57 24.34 1.7 7.32 5.32 13.98 15.45 20.81l.38.28c7.25 5.64 10.71 14.55 14.38 24.03s7 19.71 10.5 27.19c1.74 3.73 3.56 6.75 5.07 8.48 1.52 1.73 2.32 1.97 2.71 2 .39.03 1.53 0 4.1-2.2 2.56-2.18 6.08-6.36 10.16-12.89l2.99-2.64c28.67-13.33 57.55-27.85 86.09-36.83 25.93-8.16 51.87-11.66 76.72-4.83 9.03-36.4 12.64-57.97 8.48-74.35-4.4-17.32-17.71-32.15-45.43-57.18-20.42-9.11-35.3-14-49.6-14.62a72.45 72.45 0 00-3.11-.07z" />
    <path id="plzensky" d="M769.34 936.23c-2.48.06-5.46.59-9.16 1.78a7 7 0 01-2.53.58h-.12c-5.52.8-8.61 1.97-9.8 2.64.25.57.72 1.7 2.16 3.54 1.73 2.2 4.1 4.78 6.42 7.48 2.32 2.7 4.64 5.42 6.18 9.1a13.4 13.4 0 011.13 6.59 12.04 12.04 0 01-3.4 7.05c-3.68 3.66-8.33 4.87-14.73 5.8-4.72.68-11.04.92-18.35.94.97 9.3 1.38 17.4.75 23.74-.82 8.16-2.94 14.56-7.31 19.08-4.38 4.51-10.64 6.04-16.28 5.68-5.63-.37-11.16-2.18-16.9-4.47-11.45-4.58-23.81-11.33-35.22-15.33-11.4-4-20.84-4.99-27.8-.75l-1.92.8c-40.15 10.19-58.53 41.98-80.27 67.02-10.87 12.52-22.91 23.54-39.36 27.09-15.9 3.43-34.73-.58-58.43-14.15-45.66 8.58-62 19.55-79.99 27.33-18.32 7.94-37.84 11.33-84.67 2.53a7 7 0 01-1.78-.57c-6.29 7.75-20.83 20.68-31.02 39.99-2.88 5.46 3.34 13.47-.17 18.54-3.3 4.78-14.58.17-16.54 5.66-5.1 14.2 6.5 32.6-1.71 45.27-9.67 14.92-41.66 10.34-45.6 27.66-4.44 19.41 12.63 39.58 27.09 53.26 12.37 11.7 38.97 3.2 47.96 17.66 11.02 17.75-4.65 42.82 1.89 62.69 2.01 6.12 13.69-1.62 19.28 1.56 3.27 1.86 3.5 5.04 4.9 11.16 5.34 22.97.8 49.1 12.83 69.59 6.6 11.22 30.29 4.3 35.58 16.22 6.24 14-9.1 29.97-8.2 45.3.83 14.3 3.61 30.28 13.23 40.9 7.63 8.45 22.96 3.96 32.71 9.83 11.62 7 22.96 16.11 29.8 27.85 8.42 14.46 1.5 37.52 14.46 48.1 17.79 14.52 43.55 17.97 66.52 18.04 5.97.02-7.32-16.29-1.56-17.84 13.86-3.72 29.9-.02 42.5 6.84 15.5 8.44 23.9 26.3 37.96 36.98 4 3.05 11.72-.86 14.8 3.14 3.13 4.08-.32 10.31-.47 15.46-.16 5.16-5.11 13.3 1.78 21.86 8.04 9.97 24.54 10.54 32.43 20.63 9.25 11.82 7.38 30.03 16.57 41.9 9.67 12.5 29.12 15.34 37.9 28.46 6.92 10.33-1.15 26.58 5.85 36.87 7.75 11.35 21.28 19.16 34.61 22.46 10.75 2.67 23.25-11.46 32.73-5.74 28.05 16.9 54.71 39.65 70.75 68.19 10.11 17.98-2.26 41.74 2.37 61.85 1.58 6.88 9.64 10.41 15.26 14.68 14.51 10.97 26.84 29.68 45 30.95 9.41.66-.04-21.81 7.65-27.25 5.9-4.17 13.8-1.37 21.43.47-2.7-41.47 10.27-67.13 20.03-90.12 9.9-23.3 16.97-43.53 4.9-81.18l6.84-9.13c45.32 1.05 64.62-21.82 73.13-44.57 4.26-11.37 5.4-22.82 4.86-30.34-.27-3.7-1.1-6.5-1.43-7.19.14.17.47.46 1.12.8 1.31.7 4.01.44 4.87-.1l-9.44-1.92a28.72 28.72 0 01-5.28-18.04c.32-6.1 2.4-11.83 5.24-17.42 5.66-11.18 14.5-22.2 22.47-34.3 7.98-12.08 15.05-25.04 17.7-39.2 2.66-14.18 1.2-29.67-8.78-48.2l1.16-8.22c8.2-8.36 10.66-15.43 10.94-22.8.27-7.37-2.08-15.36-5.15-23.97-3.07-8.6-6.82-17.74-8.2-27.75-1.17-8.6-.26-18 4.5-27.14-6.96-10.11-8.72-22.14-8.69-33.87.04-13.36 2.22-26.92 2.6-39.18.38-12.27-1-22.78-6.7-31-5.72-8.2-16.26-15.2-37.3-19.03l1.05-13.88c10.32-.3 17.14-8.75 17.88-15.4.38-3.33-.38-5.73-2.7-7.72-2.33-2-7.07-3.9-15.8-3.23l-6.94-9.8c14.56-33.13 47.6-41.5 67.15-49.77 9.78-4.13 15.14-7.9 16.43-12.3 1.28-4.41-.49-13.6-12.17-30.21l-.93-6.21c12.03-36.73 26.22-71.36 27.53-97.16.65-12.9-1.64-23.17-8.2-31.51-6.54-8.34-17.92-15.31-37.2-19.77l-5.38-6.07c-.86-7.91-9.2-19.54-22.52-30.61-13.33-11.08-31.03-21.78-48.36-30.11-17.34-8.33-34.47-14.31-45.97-16.28-5.16-.88-8.89-.7-10.56-.36-.2 1.15-.43 2.3-.85 3.33l-13.37-1.33c-.18-.97-.09-2-.08-3.02a29.67 29.67 0 00-6.79-1.3c-8.87-.8-22.36-.13-34.8-.62-6.21-.24-12.2-.76-17.63-2.14-5.42-1.37-10.7-3.59-14.15-8.53-3.44-4.95-3.5-11.8-.97-18.2 2.08-5.24 6.13-11.02 11.53-17.49l-2.4-3.9c-7.08 2.73-13.33 3.33-18.8 2.11-6.96-1.55-11.83-5.59-15.85-8.91-4.02-3.33-7.32-6.04-11.1-7.38-1.9-.67-4-1.11-6.63-1.05z" />
    <path id="vysocina" d="M2144.64 1168.87c-30.82 23.78-40.17 40.74-54.06 56.72-14.27 16.42-33.13 30.37-80.5 44.33l-3.56.11c-10.04-2.33-19.47 1.2-28 8.95-8.53 7.75-15.53 19.74-18.9 32.36-3.37 12.62-3.1 25.7 1.56 35.85 4.65 10.16 13.27 17.97 29.42 21.14l4.72 10.36c-19.68 34.16-44.34 45.54-71.85 47.4-26.24 1.78-55.24-3.5-89.9-2.39-1.96 5.6-4.8 9.83-8.18 12.77-4.4 3.8-8.93 5.42-12.53 7.2-3.6 1.77-6.48 3.48-9.47 7.28-2.65 3.37-5.4 8.59-7.77 17.17 4.12 5.69 7.28 12.93 7.55 20.6.16 4.57-1.12 10.04-5.5 13.56-4.39 3.53-10.33 4.12-16.87 2.91l-1.6-1.26c-.71 1.42-1.52 2.97-2.23 5.14-3.58 10.84-6.99 29.58-8.35 50.08-1.37 20.5-.74 42.93 3.13 61.6 3.88 18.67 11.12 33 20.94 39.07l2.22 9.74c-7.06 10.99-9.62 19.24-9.64 24.88-.03 5.63 1.87 9.07 5.96 12.56 8.17 6.99 26.41 11.36 45.29 14 18.88 2.66 37.84 3.77 50.73 8.87 3.22 1.28 6.17 2.84 8.67 5.29s4.4 6.15 4.49 10.01c.13 5.53-2.37 10.28-6.63 15.24 20 13.79 31.5 15.38 45.23 15.88 14.58.53 32.3-.48 59.92 9.7 8.38-5 16.18-7.6 23.55-7.37 8.3.26 15.48 4.13 21.04 9.54 11.1 10.81 17.68 27.48 24.95 43.67 7.26 16.2 15.05 31.81 24.8 40.15 9.67 8.26 20.59 11.14 40.53 1.94 12.42-10.37 27.67-12.48 41.32-9.56 14.04 3 26.78 10.77 36.04 20.01 9.27 9.24 15.94 20.04 13.85 31.42-1.05 5.69-5.01 10.95-10.7 13.96-4.6 2.44-10.26 3.69-17.07 4.03-13.17 34.31-25.1 54.3-25.5 66.63-.2 6.45 1.63 11.48 8.65 18.77 6.94 7.23 19.1 15.92 37.78 27 18.2 3.97 29.8-1.57 44.09-6.95 13.45-5.05 29.56-9.25 50.15-1.64 18.3-26.08 52.06-50.33 79.28-67.12 14.45-8.91 26.9-15.55 34.42-18.96 1.1-.5 1.92-.8 2.84-1.16 15.33-17.9 43.56-24.5 66.07-24.59 12.37-.04 23.15 1.48 30.7 7.52 3.79 3.02 6.62 8.3 5.99 13.65-.1.88-.38 1.7-.6 2.53 19.45-.93 34.53-9.15 49.98-21.03 16.07-12.36 32.01-28.65 51.92-42.93-6.1-4.22-11-8.87-14.42-14.08a36.11 36.11 0 01-5.66-25.3c2.17-14.68 12.17-28.44 27.03-41.18-5-3.06-9.04-6.23-12.04-9.7-4.73-5.46-6.93-11.98-6.48-18.07.9-12.17 9.64-21.2 17.6-29.75 7.94-8.55 15.58-16.9 17.5-22.56.96-2.83.96-4.55-.3-6.98-1.24-2.43-4.37-5.8-10.85-9.52l.45-12.38c5.83-2.81 8.04-5.36 8.74-6.9.7-1.56.7-3.04-.61-6.1-2.62-6.15-11.12-15.58-19.13-26.14-8-10.56-15.88-23.1-14.83-37.96 1.05-14.86 11.39-29.8 34.45-44.35l6.45-.53c1.9.79 3.16 1.23 4.72 1.84l-1.32-2c-4.5-6.97-10.09-15.22-8.64-25.28.72-5.02 4.08-10.04 9.12-13.04 5.04-2.99 11.5-4.55 20.14-5.19l7.5 7.27c-.27 6.73.45 11.45 1.42 14.25.97 2.8 1.95 3.49 2.36 3.7.41.2.85.32 2.16-.17 1.31-.5 3.19-1.76 4.89-3.72a22.78 22.78 0 005.26-16.75c-.7-6.44-4.2-13.45-14.79-19.97l3.12-12.93c11.4-.91 19.55-2.28 24.82-3.83 5.27-1.56 7.27-3.34 7.58-3.79.31-.45.46-.31-.3-2.34-.74-2.03-2.74-5.28-5.44-8.97-5.4-7.36-13.38-16.5-18.12-27.55-4.08-9.5-5.15-21.23.62-32.45-72.58-64.91-154.9-88.61-232.88-122.13l-3.04-2.52c-2.9-4.32-4.66-4.93-5.26-5-.6-.08-2 .2-4.6 2.37-5.22 4.33-12.38 14.65-20.79 23.87-8.4 9.22-19.27 18.3-33.37 16.95-14.1-1.34-27.92-12.5-43.5-36.83l-1.1-3.62c-.2-9.2-3.63-16.1-10.1-22.86-6.46-6.78-16.1-13.05-27.62-19.28-22.05-11.93-50.72-23.77-76.37-42.54-13.26 6.49-24.35 8.78-33.97 7.1-10.6-1.84-18.53-8.07-25.32-14.88-12.9-12.94-22.98-28.3-43.45-34.84z" />
    <path id="jihomoravsky" d="M2830.4 1378.62c-2.26 15.67-9.53 26.3-19.6 31.86-11.67 6.43-25.47 6.65-38.7 6.02-13.24-.62-26.25-2.24-35.54-1.5-4.65.36-8.23 1.32-10.46 2.65a8.1 8.1 0 00-4.03 5.02 7 7 0 01-2.04 4.2c-5.97 8.57-5.19 15.2-1.78 23.13 3.53 8.22 10.66 16.76 16.56 24.81 2.95 4.03 5.64 7.92 7.28 12.39 1.65 4.46 1.91 10.45-1.3 15.12-3.2 4.66-8.33 7.27-15.16 9.28a93.63 93.63 0 01-11.66 2.53c4.99 6.09 7.75 12.75 8.46 19.26a36.08 36.08 0 01-8.6 27.44c-2.95 3.4-6.43 6.1-10.51 7.65-4.08 1.54-9.07 1.76-13.42-.44-4.36-2.2-7.48-6.43-9.28-11.6-1.1-3.15-1.65-6.93-1.95-11.04-3.04.65-5.45 1.4-6.74 2.16-2.16 1.28-2.23 1.8-2.4 3-.35 2.39 2.42 9.32 6.54 15.68 2.06 3.17 4.23 6.24 6.02 9.1.89 1.44 1.7 2.8 2.37 4.34.67 1.54 1.5 3.23 1.07 6.23-.42 3.01-3.91 6.43-6.52 7.07-2.61.63-4.46.29-6.56-.14-3.42-.7-7.86-2.3-13.39-4.53-18.65 12.43-24.47 22.83-25.09 31.56-.64 9.18 4.66 18.8 12.03 28.52 7.37 9.71 16.42 18.69 20.85 29.1 2.22 5.2 3.11 11.53.5 17.34a22.55 22.55 0 01-5.95 7.74c3.15 2.75 5.63 5.67 7.3 8.9 3 5.85 2.96 12.41 1.1 17.89-3.72 10.95-12.81 19.3-20.51 27.6-7.7 8.28-13.52 16.24-13.89 21.25-.18 2.5.3 4.63 3.1 7.87 2.8 3.23 8.18 7.22 17.01 11.38l1.21 11.94c-17.88 13.39-28.3 27.6-29.94 38.76a21.1 21.1 0 003.5 15.57c3.35 5.09 9.36 10.36 18.86 15.2l.6 12.13c-22.55 14.41-40.38 33.28-60.12 48.47-19.74 15.18-42.17 26.57-71.82 23.63l-4.15-12.02c3.3-3.17 4.1-5.38 4.16-5.86.05-.47.36-.12-.83-1.06-2.36-1.9-11.23-4.5-21.92-4.46-18.16.07-41.03 6.63-53.07 17.52a7.4 7.4 0 01-.99 2.67c-.83 1.3-1.38 1.7-1.97 2.23a42.18 42.18 0 01-4.43 3.3l-1.7-1.63c-.4.17-.56.2-1.02.41-6.54 2.96-18.81 9.47-32.84 18.12-28.05 17.3-63.55 43.86-78.13 67.39l-8.86 2.68c-19.77-9.04-30.9-5.36-44.87-.11-13.88 5.22-30.33 12.61-53.18 7.28a35.4 35.4 0 00-7.91-.55c.27 1.3.8 3.15 1.48 5.41 1.45 4.89 3.61 11.5 1.12 18.8-1.4 4.06-4.31 7.57-8.62 10.34 10.01 1.04 23.06 2.94 33.64 8.35 18.92 9.67 30.51 30.84 49.75 39.9 12.7 6 28.73 7.99 42.01 3.42 9.14-3.15 8.06-19.5 16.76-23.68 11.76-5.66 26.7-7.42 39.01-3.15 5.3 1.85-3.94 13.5.54 16.89 6.39 4.79 17.43-3.16 23.93 1.48 6.9 4.9 3.66 18.3 10.62 23.13 4.55 3.17 11.17-7.25 16.03-4.57 6.61 3.63 4.93 15.65 11.34 19.61 4.28 2.63 11.6-7.6 14.62-3.6 3.33 4.4-8.35 10.94-5.45 15.66 7.04 11.5 19.3 19.28 30.99 26.05 21.48 12.44 43.27 26.6 67.69 31.15 49.19 9.17 99.83 11.05 149.83 9.4 5.22-.16.75-15.2 5.9-14.5 6.99.96 6.67 13.15 12.54 17.04 3.36 2.22 8.94 1.8 12.06-.74 13.83-11.25 26.97-24.01 36.66-38.97 8.16-12.55 10.6-28 15.88-42 3.87-10.21 7.04 13.33 35.55 10.28 6.9-.74 7.18-17.45 13.83-15.53 14.83 4.26 20.95 24.53 35.46 29.77 12.96 4.67 30.87-11.07 41.3-2.08 14.2 12.23 4.55 40.26 18.1 53.21 6.97 6.67 17.8-12.2 27.16-9.93 18.16 4.43 29.87 25.93 48.39 28.34 22.14 2.9 44.74-21.34 65.6-13.4 14.88 5.65 14.26 29.01 16.83 44.73 2.57 15.69-5.96 32.35-1.68 47.65 1.7 6.1 11.07 9.29 17.26 7.97 6.47-1.38 11.74-8.2 13.51-14.59 5.47-19.67.82-41.53 7.49-60.84 2.02-5.88 14.92-2.67 16.5-8.68 2.1-8.06-11.11-15.9-8.07-23.65 5.95-15.1 23.15-23.17 31.87-36.86 1.84-2.89-4.25-7.62-1.9-10.1 8.47-9.08 22-12.18 30.84-20.88 1.73-1.7-1.88-4.49-2.82-6.72-.95-2.24-.46-26.33 11.18-39.96 5.7-6.66 19.08 1.61 26.1-3.64 12.21-9.16 12.36-35.12 27.55-36.56 28.58-2.77 56.64 12.82 82.13 26.02 12.34 6.38 16.06 23.73 27.95 30.9 6.17 3.73 15.5 2.78 21.63-.99 13.47-8.34 18.06-32.88 33.9-33.32 19.84-.54 31.13 33.17 50.87 31 26.46-2.89 46.26-25.58 68.55-40.8-21.77-20.89-40.43-50.86-59.72-71.13-9.84-10.34-19.7-17.96-29.33-21.08-9.64-3.12-19.2-2.46-31.33 5.03l-5.7.74c-34.1-10.3-54.19-29.97-73.56-45.52-19.37-15.54-37.45-27.32-71.17-26.1l-6.86-9.3c4.24-12.18 5.25-20.9 4.52-26.55-.73-5.66-2.69-8.34-5.86-10.54-6.34-4.41-20.06-5.03-33.56-4.16-6.76.44-13.38 1.08-19.29 1.15-5.9.07-11.27.33-16.41-3.71a12.59 12.59 0 01-4.47-9.15c-.05-3.39 1.02-6.37 2.62-9.52 3.2-6.31 8.97-13.65 18.37-23.8l1.22-1.04c10.8-7.3 17.71-13.5 21.6-18.47 3.88-4.97 4.76-8.34 4.63-11.26-.27-5.84-6.71-13.25-15.88-22.62-9.17-9.36-20.26-20.68-24.53-36.88-4.12-15.67-1.09-35 14.02-58.75-5.45-24.53-27.44-47.77-47.62-66.67-10.44-9.79-20.23-18.34-26.96-26.16-3.37-3.9-6.08-7.57-7.54-11.98-.55-1.68-.68-3.6-.57-5.53a38.1 38.1 0 01-4.95-4.58c-4.07-4.42-8.59-10.43-13.58-17.38-9.97-13.91-21.68-31.58-32.58-45.8-5.44-7.1-10.7-13.34-15.19-17.66-4.25-4.1-7.87-5.92-8.72-6.16-.14.17-.59.6-1.14 2.37-1.23 3.92-2.02 12.15-1.46 24.4 12.57 21.05 13.28 39.26 5.74 52.14-7.76 13.25-22.54 19.77-36.82 20.88-14.28 1.12-29.2-2.9-37.21-14.43-4.01-5.76-5.77-13.35-4.5-21.52 1.02-6.52 3.89-13.46 8.6-20.89-13.75-11.42-18.8-24.8-18.23-37.03.62-13.76 7.02-25.68 11.22-34.69 2.1-4.5 3.6-8.34 3.95-10.39.34-2.04.57-1 .08-1.36-.49-.36-3.91-1.69-10.81-1.75-6.9-.06-17.05.84-30.97 2.97l-7.93-5.6c-2.23-11.66-3.33-20.44-3.5-27.28-.16-6.84.4-11.88 2.94-16.24 2.54-4.35 8.05-6.7 12.16-6.53 4.1.16 7.4 1.51 10.54 2.78 6.3 2.54 12.02 4.19 13 3.9.5-.13.81.02 1.83-2.38.82-1.9 1.63-5.4 2-10.58-44.18-22-90.84-13.44-140.2-21.4z" />
    <path id="jihocesky" d="M1680.56 1424.33c-3.57 27.1-20.83 55.72-42.22 74.14-12.39 10.67-26.44 18.04-40.97 18.24-14.52.2-28.77-7.76-38.73-24.24-.3-.14-.73-.36-1.75-.63-2.56-.69-6.9-1.3-12.14-1.64-10.47-.7-24.64-.51-38.72-.03-14.08.47-28.1 1.24-38.68 1.64-5.3.2-9.7.32-13.02.25-1.26-.02-2.3-.12-3.37-.23-13.97 8.68-28.16 9.16-40.45 5.54-13.15-3.87-24.65-11.5-35.38-17.25-10.73-5.74-20.18-9.38-29.04-7.86-8.86 1.52-19 8.18-31.05 27.51l-3.63 2.9c-19.4 6.8-36.08 4.93-49.52-.27-13.45-5.21-23.9-13.43-32.26-19-4.18-2.77-7.83-4.85-10.63-5.79-2.8-.93-4.38-.93-6.3-.12-3.84 1.62-10.87 9.7-18.71 31.03l-3.57 3.9c-32.9 15.64-53.74 9.01-72.06 2.55-18.01-6.35-34.16-12.52-68-.31-3.41 6.34-3.87 12.17-2.97 18.72 1.04 7.62 4.32 15.98 7.51 24.94 3.2 8.96 6.34 18.63 5.95 29.2-.35 9.24-4 18.92-11.66 28.15 9.36 19.33 11.09 37.25 8.12 53.11-3.2 17.04-11.4 31.62-19.79 44.35-8.4 12.72-17.04 23.78-21.66 32.9-2.31 4.57-3.58 8.55-3.75 11.85a13.4 13.4 0 001.45 6.62c.33.12.7.18.99.33 2.64 1.4 3.85 3.35 4.77 5.16 1.85 3.63 2.58 7.67 2.93 12.58.71 9.82-.69 22.84-5.7 36.25-9.41 25.14-32.96 51.3-77.33 53.54 9.14 35.6 1.62 59.78-7.77 81.91-10.15 23.9-21.71 45.92-18.88 84.95 5.09-1.57 8.35-4.35 11.58-1.86 9.82 7.58 9.16 24.65 19.22 31.92 4.2 3.03 9.98-13.02 12.88-8.75 13.02 19.35 7.92 49.66 25.24 65.29 10.64 9.62 31.4-12.36 42.87-3.79 13.83 10.31 7.98 34.33 17.44 48.78 3.36 5.15 14.88-.47 17.75 4.95 8.79 16.7 1.6 40.5 13.77 54.91 8.18 9.68 26.09.54 37.58 5.87 11.22 5.2 18.6 16.32 27.9 24.47 9.3 8.17 11.02 16.7 27.01 28.91 8.74 6.67 23.31 1.09 32.11 7.67 9.08 6.8 9.17 21.44 17.34 29.3 3.93 3.8 13.54-1.84 16.13 2.97 3.14 5.86.65 14.84-4.02 19.58-7.16 7.27-26.47 2.64-27.88 12.76-1.25 9.09 18.81 5.65 24.27 12.99 2.93 3.95-6.9 10.18-4.06 14.2 3.63 5.17 13.76 1.12 18.09 5.71 2.71 2.88-5.5 11.04-1.6 11.8 43.38 8.44 88.4 5.65 131.88 13.57 12.76 2.33 24.6 9.27 35.14 16.85 3.3 2.36.56 13.21 4.21 11.44 8.64-4.19 9.71-17.89 18.23-22.34 5.56-2.9 13.9 7.22 18.61 3.07 5.46-4.8-3.7-17.98 2.54-21.69 7.47-4.44 18.54 9.98 25.62 4.95 10.6-7.54 14.85-22.35 16.88-35.17 1.05-6.77-10.68-12.35-8.35-18.77 1.92-5.35 11.86-7.18 16.55-4 10.51 7.11 12.44 23.14 22.72 30.6 10.63 7.7 24.28 14.97 37.23 12.82 12.92-2.16 17.93-23.34 30.98-24.19 7.83-.5 3.06 17.03 9.45 21.6 4.24 3.04 11.32-7.43 15.17-3.93 7.25 6.54 2.88 21.4 10.68 27.28 6.41 4.85 17.03 2.8 24.07-1.03 6.86-3.74 12.06-11.6 13.27-19.31.69-4.36-2.6-63.66 1.1-72.08 3.68-8.4 4.52-18.63 10.78-25.27 12.42-13.16 34.61-16.75 43.6-32.46 7.25-12.7-12.47-36.36.06-43.88 17.16-10.28 40.8 1.05 59.53 8.14 8.04 3.04 15.92 10.22 34.85 11.29 7.65.42 16.66-8.48 16.35-16.1-.38-9.17-18.13-11.75-17.88-20.93.48-16.5 17.27-29.1 19.82-45.38 1.66-10.67-8.66-20.7-7.78-31.43.83-10.1 12.54-17.52 12.68-27.64.28-22.58-11.36-44.2-11.38-66.77 0-15.13 3.85-30 11.19-43.23 2.82-5.02 10.58-5.69 16.34-5.65 9.8.06 20.76.34 28.77 5.95 3.88 2.71-4.35 12.76.17 14.27 18.23 6.04 43.17-7.99 57.46 4.87 12.66 11.4-8.34 39.8 4.56 50.93 9.82 8.48 22.42-14.28 35.15-16.67 9.92-1.83 22.42 11.26 29.92 4.53 10.27-9.22-.5-31.17 9.9-40.23 6.03-5.27 10.2 14.28 18.06 15.85 9.16 1.84 18.27-9.6 27.16-6.8 18.42 5.78 31.14 23.64 49.07 30.75 8.92 3.53 19.59-2.47 28.81.17a45.4 45.4 0 0121.9 14.28c4.8 5.74 2.66 15.61 7.72 21.14 2.4 2.63 6 3.42 9.69 4.06a7 7 0 015.46-5.35c9.1-1.98 10.66-4.37 11.3-6.26.65-1.88.08-5.7-1.28-10.28-.68-2.29-1.47-4.67-1.95-7.35-.49-2.67-.84-6.03 1.08-9.6a10.6 10.6 0 012.31-2.85c-10.97-7.14-19.24-13.48-25.3-19.78-8.7-9.06-12.86-18.83-12.54-28.92.64-20.18 14.74-39.43 28.15-75.5l6.65-4.56c7.6.1 12.57-1.14 15.22-2.54 2.64-1.4 3.16-2.44 3.47-4.11.62-3.36-2.53-11.56-9.96-18.98-7.44-7.4-18.3-13.92-29.09-16.23-10.8-2.3-21.11-.87-30.22 7.21l-1.68 1.1c-23.56 11.05-42.87 7.58-56.1-3.74-13.25-11.32-21.15-28.66-28.5-45.06-7.35-16.4-14.32-31.96-21.94-39.37-3.8-3.7-7.27-5.44-11.7-5.58-4.44-.14-10.45 1.55-18.52 6.9l-6.42.7c-27.5-10.77-42.29-9.34-58.6-9.93-16.32-.6-33.74-3.83-59.6-23.27l-.59-10.7c6.75-6.34 8.1-10.52 8.1-10.8 0-.15.2.14-.3-.36-.5-.49-1.87-1.4-4.02-2.26-8.63-3.42-28.08-5.29-47.53-8.02-19.44-2.72-39.44-6.12-52.43-17.22-6.5-5.55-10.92-13.73-10.87-23.28.03-8.03 2.97-16.81 8.56-26.7-11.63-10.06-18.07-26.2-21.78-44.07-4.27-20.53-4.83-43.94-3.4-65.38 1.42-21.44 4.8-40.74 9.02-53.54 2.11-6.4 3.66-11.13 8.28-14.89 2.3-1.88 7.13-3.1 10.56-1.36a11 11 0 013.83 3.18 12.7 12.7 0 002.55-.23c.01-.02.36-.22.29-2.16-.1-2.92-2.14-8.09-4.37-11.86a7.02 7.02 0 01-1.09-.63c-26.26-18.18-53.38-30.84-74.46-39.93-10.54-4.55-19.55-8.19-26.37-11.29-.92-.41-1.49-.78-2.33-1.18z" />
    <path id="zlinsky" d="M3691.5 1437.36c-3.5 10.47-8.58 17-15.39 20.1-8.72 3.95-17.27 1.74-24.66.4-7.4-1.35-13.76-2.17-19.4.07-5.41 2.16-11.42 7.56-17.51 21.23 3.05 18.14.34 31.36-7.8 39.6-8.5 8.61-20.71 10.44-32.9 10.38-12.19-.05-25.05-2.1-36.35-3.37-5.83-.66-11.21-.96-15.68-.88 3.9 6.05 6.56 11.48 7.9 16.53 2.02 7.54.73 15.05-3.57 20.07-4.3 5.01-10.32 7.38-16.7 8.93-6.39 1.54-13.43 2.2-20.61 2.66-14.37.9-29.59 1.05-38.3 3.38-4.37 1.17-6.5 2.77-7.04 3.67-.56.9-1.1 2.41 1.08 7.34l-.05 5.74c-4.74 10.33-10.58 17.5-17.65 21.64-7.07 4.13-15.04 4.77-22.37 3.3-14.66-2.91-28-13-40.02-21.88-6.01-4.44-11.64-8.65-16.44-11.61-4.8-2.97-8.83-4.44-10.5-4.5-1.67-.07-1.42-.61-2.87 2.46-1.38 2.92-2.7 9.48-2.9 19.62 9.39 18.3 8.32 34.75-.1 46.85-8.7 12.53-23.36 20.53-38.99 27.18-15.62 6.65-32.5 11.81-45.96 16.97-12.88 4.95-21.9 10.73-23.9 13.88a7 7 0 01-1.36 2.23c-14.56 22.3-16.22 37.28-13.13 49 3.13 11.88 11.91 21.4 20.99 30.66 9.07 9.27 19.25 18.29 19.87 31.77.3 6.74-2.3 13.76-7.6 20.53-5.15 6.59-12.91 13.31-23.96 20.85-8.7 9.44-13.8 16.3-15.77 20.17-.5 1-.41.98-.56 1.5 1.3.25 3.26.58 6.17.54 4.97-.06 11.53-.67 18.55-1.12 14.05-.9 30.24-1.87 42.46 6.63 6.11 4.25 10.6 11.34 11.75 20.24.88 6.77.1 14.56-2.36 23.8 31.67 1.27 52.44 14.35 70.75 29.03 19.52 15.67 37.02 32.6 66.18 42.1 13.87-7.6 27.66-8.72 39.96-4.75 13.19 4.27 24.53 13.57 35.16 24.75 21.26 22.34 40.3 52.9 60.42 71.78a7 7 0 012.2 3.99c7.49 1.47 15.14 8.96 30.66-6.27 19.16-18.8 23.74-51.52 46.47-65.8 19.08-11.98 52.1 10.85 67.35-5.72 19.75-21.44 11.33-57.22 16.99-85.8.9-4.6 2.79-9.83 43.95-15.6 7.36-1.03 14.1 8.16 21.32 6.46 11.47-2.71 22.75-9.37 30.05-18.6 12.38-15.63 23.07-33.85 27.02-53.4h-.01c2.72-13.44-13.44-34.15-7.55-42.94 5.9-8.8 15.87-15.93 17.68-26.33 4.85-27.87-4.5-57.27 1.73-84.85 2.4-10.63 17.6-13.92 22.8-23.48 2.65-4.9-5.86-14.1-.93-16.71 38.33-20.28 84.27-24.52 121.33-47.02 12.96-7.86 18.95-25.03 21.86-39.92 1.23-6.29-4.42-14.04-7.39-20.01a7 7 0 01-5.46-1.28c-22.84-16.45-40.29-43.54-61.35-64.43-21.06-20.89-44.22-35.63-79.91-30.17l-4.01-.58c-25.38-11.82-53.36-8.92-82.82-7.3-26.59 1.48-54.65 1.64-80.82-13.71z" />
  </svg>
  